<svg width="80" height="81" viewBox="0 0 80 81" fill="none" xmlns="http://www.w3.org/2000/svg">
<path d="M74.8166 25.8667L70.8166 54.4667C69.95 60.4667 66.65 63.6334 61.2166 63.6334C60.7833 63.6334 60.35 63.6 59.8833 63.5667C59.9797 62.9157 60.0243 62.2581 60.0166 61.6V32.7C60.1857 31.4932 60.0718 30.2636 59.6838 29.1083C59.2958 27.9531 58.6443 26.904 57.781 26.044C56.9177 25.1839 55.8662 24.5364 54.7095 24.1527C53.5529 23.7691 52.3228 23.6597 51.1166 23.8333H17.8833C17.8833 23.7667 17.9166 23.6667 17.9166 23.6L18.7166 18C18.8213 16.5734 19.2081 15.1817 19.8547 13.9057C20.5012 12.6297 21.3947 11.4947 22.4833 10.5667C23.6772 9.78003 25.0146 9.23672 26.4188 8.96788C27.8231 8.69904 29.2666 8.70996 30.6666 9.00001L65.8666 13.9333C67.2898 14.0474 68.6763 14.4418 69.9463 15.094C71.2163 15.7462 72.3448 16.6432 73.2666 17.7333C74.0631 18.913 74.6113 20.2424 74.8777 21.6407C75.1442 23.0389 75.1234 24.4767 74.8166 25.8667Z" fill="#80011F"/>
<path d="M6.66669 61.61V32.7167C6.4951 31.5095 6.60681 30.279 6.993 29.1225C7.3792 27.966 8.02926 26.9153 8.89174 26.0534C9.75423 25.1916 10.8055 24.5423 11.9623 24.157C13.1191 23.7717 14.3497 23.6609 15.5567 23.8334H51.1167C52.3231 23.6627 53.5526 23.7749 54.7082 24.161C55.8638 24.5471 56.9138 25.1965 57.7754 26.058C58.6369 26.9196 59.2863 27.9696 59.6724 29.1252C60.0585 30.2808 60.1707 31.5103 60 32.7167V61.61C60.1718 62.8169 60.0605 64.0472 59.6749 65.2037C59.2894 66.3601 58.6401 67.4111 57.7784 68.2734C56.9167 69.1357 55.8663 69.7858 54.7101 70.1722C53.5539 70.5587 52.3237 70.6709 51.1167 70.5H15.5567C14.349 70.6728 13.1177 70.5619 11.9604 70.1762C10.803 69.7906 9.75132 69.1407 8.88869 68.278C8.02606 67.4154 7.37616 66.3637 6.99048 65.2063C6.6048 64.049 6.49395 62.8177 6.66669 61.61Z" fill="#80011F" fill-opacity="0.25"/>
<path d="M41.6667 44.6667H35.8333V38.8333C35.8333 38.1703 35.5699 37.5344 35.1011 37.0656C34.6323 36.5967 33.9964 36.3333 33.3333 36.3333C32.6703 36.3333 32.0344 36.5967 31.5656 37.0656C31.0967 37.5344 30.8333 38.1703 30.8333 38.8333V44.6667H25C24.337 44.6667 23.7011 44.9301 23.2322 45.3989C22.7634 45.8678 22.5 46.5036 22.5 47.1667C22.5 47.8297 22.7634 48.4656 23.2322 48.9344C23.7011 49.4033 24.337 49.6667 25 49.6667H30.8333V55.5C30.8333 56.1631 31.0967 56.7989 31.5656 57.2678C32.0344 57.7366 32.6703 58 33.3333 58C33.9964 58 34.6323 57.7366 35.1011 57.2678C35.5699 56.7989 35.8333 56.1631 35.8333 55.5V49.6667H41.6667C42.3297 49.6667 42.9656 49.4033 43.4344 48.9344C43.9033 48.4656 44.1667 47.8297 44.1667 47.1667C44.1667 46.5036 43.9033 45.8678 43.4344 45.3989C42.9656 44.9301 42.3297 44.6667 41.6667 44.6667Z" fill="#80011F"/>
</svg>
