<svg width="24" height="24" viewBox="0 0 24 24" fill="none" xmlns="http://www.w3.org/2000/svg">
<path fill-rule="evenodd" clip-rule="evenodd" d="M5.29303 8.29303C5.10556 8.48056 5.00024 8.73487 5.00024 9.00003C5.00024 9.26519 5.10556 9.5195 5.29303 9.70703L11.293 15.707C11.4806 15.8945 11.7349 15.9998 12 15.9998C12.2652 15.9998 12.5195 15.8945 12.707 15.707L18.707 9.70703C18.8892 9.51843 18.99 9.26583 18.9877 9.00363C18.9854 8.74143 18.8803 8.49062 18.6948 8.30521C18.5094 8.1198 18.2586 8.01464 17.9964 8.01236C17.7342 8.01008 17.4816 8.11087 17.293 8.29303L12 13.586L6.70703 8.29303C6.5195 8.10556 6.26519 8.00024 6.00003 8.00024C5.73487 8.00024 5.48056 8.10556 5.29303 8.29303Z" fill="#2B2A29"/>
</svg>
