<svg width="128" height="128" viewBox="0 0 128 128" fill="none" xmlns="http://www.w3.org/2000/svg">
<g clip-path="url(#clip0_232_3853)">
<path d="M64 128C99.3462 128 128 99.3462 128 64C128 28.6538 99.3462 0 64 0C28.6538 0 0 28.6538 0 64C0 99.3462 28.6538 128 64 128Z" fill="#80011F"/>
<path d="M64.0001 76.8C61.6824 76.7999 59.4547 75.903 57.7835 74.297C56.1124 72.6911 55.1275 70.5009 55.0351 68.185L53.8526 38.325C53.8052 37.118 54.0019 35.9139 54.4311 34.7848C54.8602 33.6557 55.5129 32.6248 56.3501 31.7541C57.1872 30.8833 58.1916 30.1905 59.3029 29.7173C60.4143 29.244 61.6097 29.0001 62.8176 29H65.1826C66.3905 29.0001 67.586 29.244 68.6973 29.7173C69.8087 30.1905 70.8131 30.8833 71.6502 31.7541C72.4873 32.6248 73.1401 33.6557 73.5692 34.7848C73.9983 35.9139 74.1951 37.118 74.1476 38.325L72.9651 68.185C72.8728 70.5009 71.8879 72.6911 70.2167 74.297C68.5456 75.903 66.3178 76.7999 64.0001 76.8Z" fill="#F2E5CC"/>
<path d="M72.958 90.0425C72.958 85.0954 68.9476 81.085 64.0005 81.085C59.0534 81.085 55.043 85.0954 55.043 90.0425C55.043 94.9896 59.0534 99 64.0005 99C68.9476 99 72.958 94.9896 72.958 90.0425Z" fill="#F2E5CC"/>
</g>
<defs>
<clipPath id="clip0_232_3853">
<rect width="128" height="128" fill="white"/>
</clipPath>
</defs>
</svg>
