<svg width="32" height="32" viewBox="0 0 32 32" fill="none" xmlns="http://www.w3.org/2000/svg">
<rect width="32" height="32" rx="16" fill="#FFF9E0"/>
<path d="M17.1312 16L20.5656 12.5656C20.8781 12.2531 20.8781 11.7468 20.5656 11.4343C20.2531 11.1218 19.7468 11.1218 19.4343 11.4343L16 14.8687L12.5656 11.4343C12.2531 11.1218 11.7468 11.1218 11.4343 11.4343C11.1218 11.7468 11.1218 12.2531 11.4343 12.5656L14.8687 16L11.4343 19.4343C11.1218 19.7468 11.1218 20.2531 11.4343 20.5656C11.5906 20.7218 11.7953 20.8 12 20.8C12.2046 20.8 12.4093 20.7218 12.5656 20.5656L16 17.1312L19.4343 20.5656C19.5906 20.7218 19.7953 20.8 20 20.8C20.2046 20.8 20.4093 20.7218 20.5656 20.5656C20.8781 20.2531 20.8781 19.7468 20.5656 19.4343L17.1312 16Z" fill="black"/>
</svg>
