<svg width="128" height="129" viewBox="0 0 128 129" fill="none" xmlns="http://www.w3.org/2000/svg">
<path d="M88 60.5C82.4621 60.5 77.0486 62.1422 72.444 65.2189C67.8395 68.2955 64.2506 72.6685 62.1314 77.7849C60.0121 82.9012 59.4576 88.5311 60.538 93.9625C61.6184 99.394 64.2851 104.383 68.201 108.299C72.1169 112.215 77.106 114.882 82.5375 115.962C87.9689 117.042 93.5988 116.488 98.7151 114.369C103.831 112.249 108.204 108.661 111.281 104.056C114.358 99.4514 116 94.0379 116 88.5C115.986 81.0783 113.031 73.9645 107.783 68.7166C102.535 63.4686 95.4217 60.5141 88 60.5ZM98.6667 85.9933L88 96.66C87.25 97.4091 86.2333 97.8298 85.1733 97.8298C84.1133 97.8298 83.0967 97.4091 82.3467 96.66L77.0133 91.3267C76.6396 90.9475 76.3453 90.4976 76.1478 90.0032C75.9502 89.5088 75.8533 88.98 75.8627 88.4477C75.8722 87.9154 75.9878 87.3903 76.2028 86.9033C76.4178 86.4163 76.7279 85.9771 77.1148 85.6114C77.5018 85.2457 77.9578 84.961 78.4562 84.7739C78.9547 84.5868 79.4854 84.5011 80.0174 84.5217C80.5494 84.5424 81.0719 84.6691 81.5543 84.8943C82.0367 85.1195 82.4693 85.4388 82.8267 85.8333L85.3333 88.34L93.1733 80.5C93.4728 79.9732 93.8881 79.5214 94.3878 79.1786C94.8874 78.8358 95.4585 78.611 96.0577 78.5212C96.657 78.4314 97.2688 78.4789 97.847 78.6602C98.4252 78.8414 98.9547 79.1517 99.3955 79.5675C99.8362 79.9833 100.177 80.4938 100.391 81.0605C100.606 81.6272 100.689 82.2352 100.634 82.8387C100.579 83.4421 100.388 84.0253 100.075 84.5441C99.762 85.0628 99.3351 85.5037 98.8267 85.8333L98.6667 85.9933ZM60.32 49.7267L17.6533 13.0333C18.6496 12.6925 19.6938 12.5125 20.7467 12.5H101.653C102.706 12.5125 103.75 12.6925 104.747 13.0333L62.08 49.7267C61.8453 49.9366 61.5415 50.0526 61.2267 50.0526C60.9118 50.0526 60.608 49.9366 60.3733 49.7267H60.32ZM52 88.5C51.9734 88.944 51.9734 89.3893 52 89.8333H21.0133C18.6742 89.8763 16.4132 88.9916 14.7243 87.3727C13.0354 85.7538 12.056 83.5322 12 81.1933V21.14C12.0159 20.3618 12.1415 19.5897 12.3733 18.8467L55.04 55.7533C55.4031 56.0706 55.8181 56.3231 56.2667 56.5C57.6985 57.4722 59.3893 57.9919 61.12 57.9919C62.8507 57.9919 64.5415 57.4722 65.9733 56.5C66.4219 56.3231 66.8369 56.0706 67.2 55.7533L109.867 18.8467C110.098 19.5897 110.224 20.3618 110.24 21.14V60.5533C104.958 56.2726 98.572 53.5751 91.8207 52.773C85.0694 51.9709 78.229 53.0969 72.0911 56.0208C65.9532 58.9446 60.7687 63.5468 57.1377 69.2947C53.5066 75.0426 51.5774 81.7013 51.5733 88.5H52Z" fill="#88D05E"/>
</svg>
