<svg width="24" height="24" viewBox="0 0 24 24" fill="none" xmlns="http://www.w3.org/2000/svg">
<g clip-path="url(#clip0_46_762)">
<path d="M20.4375 2.8125H16.257L15.7999 1.44197C15.6602 1.02186 15.3917 0.656438 15.0325 0.397592C14.6733 0.138746 14.2417 -0.000368497 13.799 7.33091e-07H10.201C9.75819 -0.000293168 9.32655 0.13884 8.96728 0.397666C8.60801 0.656492 8.33935 1.02187 8.19942 1.44197L7.74291 2.8125H3.5625C2.39934 2.8125 1.45312 3.75872 1.45312 4.92188V6.32813C1.45312 7.11131 2.15817 7.03125 2.91483 7.03125H21.8438C22.2324 7.03125 22.5469 6.71677 22.5469 6.32813V4.92188C22.5469 3.75872 21.6007 2.8125 20.4375 2.8125ZM9.22561 2.8125L9.53358 1.88691C9.58026 1.74685 9.66985 1.62505 9.78965 1.53878C9.90944 1.45251 10.0534 1.40614 10.201 1.40625H13.799C14.1018 1.40625 14.3703 1.59919 14.4658 1.88691L14.7741 2.8125H9.22561ZM3.03122 8.53125L4.15233 22.0815C4.25189 23.1753 5.15484 24 6.2528 24H17.7472C18.8452 24 19.7482 23.1753 19.8484 22.0753L20.9689 8.53125H3.03122ZM8.48438 20.4844C8.48438 21.4112 7.07812 21.415 7.07812 20.4844V10.6406C7.07812 9.71377 8.48438 9.70997 8.48438 10.6406V20.4844ZM12.7031 20.4844C12.7031 21.4112 11.2969 21.415 11.2969 20.4844V10.6406C11.2969 9.71377 12.7031 9.70997 12.7031 10.6406V20.4844ZM16.9219 20.4844C16.9219 21.4112 15.5156 21.415 15.5156 20.4844V10.6406C15.5156 10.252 15.8301 9.9375 16.2188 9.9375C16.6074 9.9375 16.9219 10.252 16.9219 10.6406V20.4844Z" fill="#2B2A29"/>
</g>
<defs>
<clipPath id="clip0_46_762">
<rect width="24" height="24" fill="white"/>
</clipPath>
</defs>
</svg>
